<?xml version="1.0" standalone="no"?>
<!DOCTYPE svg PUBLIC "-//W3C//DTD SVG 20010904//EN"
 "http://www.w3.org/TR/2001/REC-SVG-20010904/DTD/svg10.dtd">
<svg version="1.0" xmlns="http://www.w3.org/2000/svg"
 width="76.000000pt" height="76.000000pt" viewBox="0 0 76.000000 76.000000"
 preserveAspectRatio="xMidYMid meet">

<g transform="translate(0.000000,76.000000) scale(0.100000,-0.100000)"
fill="#000000" stroke="none">
<path d="M0 380 l0 -380 380 0 380 0 0 380 0 380 -380 0 -380 0 0 -380z m514
266 c67 -28 69 -133 3 -161 l-31 -13 31 -15 c76 -40 61 -152 -22 -173 -52 -13
-116 38 -115 93 1 28 25 64 51 79 23 13 23 13 -13 14 l-38 0 0 95 0 95 50 0
c28 0 66 -6 84 -14z m-134 -421 c0 -68 -19 -108 -59 -125 -77 -31 -152 44
-121 121 17 40 54 58 123 59 l57 0 0 -55z"/>
</g>
</svg>
