<?xml version="1.0" standalone="no"?>
<!DOCTYPE svg PUBLIC "-//W3C//DTD SVG 20010904//EN"
 "http://www.w3.org/TR/2001/REC-SVG-20010904/DTD/svg10.dtd">
<svg version="1.0" xmlns="http://www.w3.org/2000/svg"
 width="892.000000pt" height="1076.000000pt" viewBox="0 0 892.000000 1076.000000"
 preserveAspectRatio="xMidYMid meet">

<g transform="translate(0.000000,1076.000000) scale(0.100000,-0.100000)"
fill="#000000" stroke="none">
<path d="M5644 9822 c-28 -9 -57 -22 -65 -28 -8 -7 -30 -15 -49 -19 -19 -4
-51 -16 -70 -26 -19 -11 -43 -19 -53 -19 -10 0 -16 -4 -12 -9 3 -5 -4 -16 -15
-24 -15 -11 -19 -21 -15 -38 5 -19 0 -28 -22 -41 -15 -9 -37 -25 -48 -35 -57
-51 -80 -55 -315 -58 l-220 -2 -48 -47 c-52 -52 -183 -137 -307 -199 -110 -55
-149 -85 -134 -104 9 -10 9 -17 1 -25 -7 -7 -12 -19 -12 -28 0 -23 -36 -56
-42 -38 -6 18 -33 -5 -64 -53 -12 -20 -62 -74 -111 -120 -150 -144 -191 -187
-208 -218 -8 -17 -20 -31 -25 -31 -4 0 -21 -26 -36 -57 -40 -82 -70 -109 -189
-171 -50 -26 -137 -98 -190 -158 -68 -77 -194 -204 -230 -233 -16 -13 -55 -47
-85 -75 -31 -28 -72 -64 -92 -81 -51 -43 -93 -106 -123 -185 -24 -62 -26 -75
-17 -127 6 -32 13 -67 16 -78 5 -15 -6 -33 -42 -72 -56 -61 -102 -167 -102
-236 0 -24 -6 -60 -14 -78 -8 -19 -73 -95 -145 -169 -131 -136 -183 -209 -257
-361 -19 -38 -34 -76 -34 -83 0 -7 -6 -19 -14 -25 -8 -7 -16 -31 -19 -54 -17
-132 -34 -180 -78 -217 -10 -8 -32 -43 -48 -77 -17 -34 -44 -71 -60 -82 -15
-11 -31 -33 -34 -49 -4 -20 -16 -34 -39 -45 -48 -22 -184 -67 -202 -67 -26 0
-208 -192 -252 -266 -70 -119 -77 -146 -69 -275 4 -63 6 -161 5 -219 -1 -90
-3 -107 -21 -123 -43 -41 -96 -147 -72 -147 5 0 24 23 43 51 19 30 35 46 39
40 7 -11 -12 -148 -22 -157 -3 -3 2 -22 10 -42 10 -22 17 -68 17 -110 1 -67
-5 -89 -17 -59 -9 20 -28 -15 -21 -38 8 -23 7 -61 -2 -127 -6 -46 -7 -47 -35
-41 -22 4 -30 1 -35 -12 -4 -10 -3 -23 2 -30 49 -66 49 -66 31 -97 -12 -21
-17 -54 -17 -116 -1 -53 -5 -93 -13 -103 -7 -9 -31 -19 -54 -22 -34 -6 -44 -4
-51 10 -9 16 -11 16 -36 0 -14 -9 -32 -17 -41 -17 -22 0 -18 -17 5 -23 11 -3
20 -13 20 -23 0 -9 7 -26 16 -35 14 -15 17 -47 18 -190 1 -130 -2 -173 -11
-176 -7 -3 -13 -19 -13 -36 0 -28 1 -29 14 -12 20 28 50 12 43 -23 -27 -140
-48 -215 -70 -244 -14 -18 -27 -48 -29 -67 -4 -43 -33 -64 -52 -38 -7 9 -15
17 -18 17 -10 0 -17 -103 -9 -119 6 -11 -3 -41 -28 -96 -47 -99 -55 -137 -56
-249 l0 -88 38 -33 c29 -25 41 -46 53 -91 15 -59 37 -94 59 -94 13 0 25 -22
49 -90 24 -68 21 -108 -10 -132 -25 -20 -25 -21 -6 -42 10 -11 22 -29 26 -40
4 -12 13 -17 26 -13 11 3 23 1 26 -4 8 -14 -25 -23 -40 -10 -11 9 -20 5 -42
-18 -15 -16 -39 -33 -52 -36 -22 -5 -23 -10 -17 -41 8 -43 -15 -74 -54 -74
-35 0 -55 -15 -48 -34 8 -20 42 -20 97 -1 23 8 53 15 67 15 32 0 80 -26 93
-49 18 -34 2 -50 -53 -53 l-52 -3 1 -58 c1 -32 6 -63 12 -69 6 -6 28 -11 49
-12 32 -1 39 3 41 20 2 13 18 29 40 40 43 22 55 38 59 81 3 31 29 103 37 103
2 0 17 -18 33 -39 l29 -40 41 19 c22 10 44 23 47 29 4 6 31 11 61 11 30 0 89
11 132 25 43 14 95 25 115 25 42 0 108 49 108 80 0 9 8 28 19 41 19 24 39 77
60 157 9 31 16 42 29 40 11 -2 15 2 13 12 -6 18 -5 56 2 90 16 79 27 114 41
128 14 14 16 14 22 -2 4 -10 2 -21 -4 -25 -13 -8 -38 -118 -30 -127 10 -9 58
19 63 38 4 10 14 22 24 28 14 7 21 4 31 -15 16 -29 12 -34 -23 -37 -14 -1 -23
-6 -21 -10 3 -4 12 -4 21 -1 11 4 14 3 9 -5 -4 -7 -1 -12 8 -12 9 0 16 7 16
16 0 9 3 14 8 12 4 -3 22 -11 39 -18 20 -9 33 -22 33 -32 0 -10 6 -18 13 -18
8 0 7 -4 -3 -10 -12 -8 -11 -10 6 -10 12 0 27 -7 35 -16 17 -21 0 -49 -29 -48
-15 0 -23 -7 -27 -28 -9 -37 9 -58 49 -58 19 0 42 -9 54 -21 23 -21 21 -39 -4
-39 -8 0 -14 -6 -14 -14 0 -8 -14 -19 -31 -25 -38 -13 -31 -26 17 -34 20 -3
62 -16 92 -29 41 -17 56 -20 59 -10 7 18 23 14 23 -6 0 -11 -17 -26 -46 -40
-55 -27 -50 -47 11 -38 32 5 45 3 55 -9 11 -13 10 -19 -7 -38 -30 -33 -36 -90
-12 -105 11 -7 17 -17 14 -22 -4 -6 -11 -7 -17 -4 -6 4 -21 -5 -33 -20 -19
-24 -21 -33 -13 -77 9 -51 -4 -129 -22 -129 -6 0 -10 -7 -10 -15 0 -8 -6 -15
-13 -15 -7 0 -21 -6 -31 -13 -16 -12 -16 -15 9 -41 20 -21 29 -26 35 -16 6 9
9 9 15 0 4 -7 -5 -22 -24 -37 -23 -19 -28 -29 -20 -39 8 -9 5 -15 -10 -23 -34
-19 -44 -14 -38 19 8 37 -10 50 -32 22 -9 -11 -25 -22 -36 -24 -24 -4 -56 -65
-49 -91 4 -11 -3 -27 -18 -41 -35 -34 -50 -64 -35 -69 7 -2 -6 -9 -28 -15 -22
-6 -45 -20 -52 -31 -8 -12 -19 -18 -31 -14 -18 4 -19 0 -14 -44 2 -26 8 -50
12 -53 4 -3 10 -15 14 -27 4 -13 12 -23 17 -23 5 0 9 -12 9 -27 0 -21 -3 -24
-12 -15 -18 18 -36 15 -43 -7 -3 -10 -19 -24 -35 -31 -30 -12 -37 -27 -42 -85
-2 -18 -8 -29 -16 -27 -6 1 -12 -2 -12 -8 0 -5 5 -10 10 -10 6 0 10 -13 10
-30 0 -16 -4 -30 -10 -30 -5 0 -10 6 -10 14 0 21 -18 30 -34 17 -16 -13 -25
-4 -52 54 -10 22 -26 51 -35 65 -20 29 -75 243 -95 370 -20 131 -18 359 5 450
17 66 64 210 86 262 4 10 3 18 -1 18 -14 0 -103 -180 -114 -230 -6 -25 -13
-151 -16 -280 -6 -231 -5 -238 25 -413 17 -98 31 -199 31 -225 0 -63 19 -139
62 -247 41 -101 100 -268 119 -332 l12 -43 1000 0 c999 0 1000 0 982 20 -10
11 -15 20 -10 20 4 0 -5 10 -21 22 -16 12 -35 30 -42 40 -7 10 -19 18 -26 18
-8 0 -16 6 -19 14 -4 9 -14 12 -26 9 -15 -4 -37 12 -90 68 -104 107 -210 270
-327 499 -32 63 -84 151 -117 195 -103 141 -169 246 -179 283 -14 55 -25 140
-38 306 -7 81 -16 162 -21 180 -6 17 -14 49 -19 71 -4 22 -22 92 -40 155 -17
63 -37 140 -44 170 -20 86 -76 273 -87 293 -17 30 -22 200 -11 313 7 60 13
159 14 219 2 97 -2 124 -30 230 -18 66 -38 161 -44 211 -11 88 -11 92 12 124
27 38 74 60 128 60 43 0 102 -17 102 -30 0 -4 11 -11 25 -14 31 -8 45 -41 45
-106 0 -40 4 -51 22 -61 60 -32 69 -50 68 -135 -3 -183 -1 -212 10 -219 14 -9
13 -152 -1 -161 -6 -3 -9 -18 -6 -32 3 -14 -2 -51 -10 -81 -20 -79 -9 -215 20
-242 11 -10 33 -19 48 -19 38 0 69 -13 101 -43 28 -26 22 -47 -14 -47 -10 0
-24 -13 -32 -29 -20 -38 -12 -41 105 -41 49 0 89 -3 89 -6 0 -17 -23 -44 -38
-44 -14 0 -16 -8 -14 -50 2 -27 0 -50 -5 -50 -15 0 -53 -40 -53 -55 0 -18 55
-20 96 -4 29 10 167 14 183 5 11 -7 -22 -74 -46 -92 -10 -7 -28 -14 -40 -14
-28 0 -29 -11 -3 -35 23 -21 31 -19 155 25 117 41 287 26 430 -39 22 -10 54
-24 72 -31 18 -7 38 -18 44 -26 6 -8 22 -14 35 -14 25 0 45 -21 26 -28 -7 -2
-9 -8 -6 -13 6 -10 46 28 63 59 5 9 28 70 51 135 48 139 84 207 196 377 114
174 340 420 560 611 212 185 350 308 374 333 62 67 225 134 346 143 76 5 85 3
128 -22 49 -29 57 -48 27 -64 -10 -6 -29 -35 -41 -64 -16 -40 -30 -56 -51 -64
-16 -6 -33 -23 -39 -37 -5 -14 -18 -34 -29 -45 -11 -11 -27 -35 -36 -53 -32
-68 -112 -201 -128 -213 -10 -7 -17 -18 -17 -24 0 -7 -7 -19 -15 -27 -8 -9
-15 -25 -15 -37 0 -11 -4 -34 -10 -51 -5 -17 -12 -44 -15 -59 -3 -15 -10 -25
-15 -22 -18 11 -20 -15 -4 -40 17 -26 16 -27 -22 -66 -21 -21 -33 -39 -26 -39
7 0 12 -4 12 -10 0 -5 -9 -10 -20 -10 -16 0 -20 -7 -20 -31 0 -26 -36 -90 -62
-109 -3 -3 -9 -17 -13 -32 -4 -16 -16 -29 -31 -32 -15 -4 -24 -14 -24 -25 0
-11 -7 -26 -15 -35 -22 -21 -19 -30 18 -45 52 -22 65 -39 65 -82 1 -29 -4 -42
-16 -47 -23 -8 -51 -43 -52 -63 0 -20 20 -39 43 -39 10 0 27 -10 36 -21 10
-13 29 -22 45 -21 16 0 32 -8 39 -19 7 -11 19 -19 28 -19 9 0 24 -17 34 -40
10 -22 25 -40 33 -40 9 0 12 -3 9 -7 -12 -11 15 -33 42 -33 32 0 111 -65 111
-92 0 -10 7 -21 15 -24 8 -4 15 -11 15 -16 0 -15 57 -68 73 -68 8 0 22 -18 32
-40 10 -22 22 -40 27 -40 4 0 8 -6 8 -14 0 -7 18 -25 40 -40 22 -14 40 -30 40
-36 0 -5 12 -15 28 -22 21 -10 27 -20 27 -45 0 -41 3 -43 72 -57 43 -8 57 -15
55 -27 -1 -9 7 -24 18 -34 11 -10 20 -24 20 -32 0 -7 15 -30 33 -50 28 -31 37
-54 51 -127 12 -62 23 -93 37 -105 14 -11 22 -33 26 -74 4 -38 10 -57 19 -57
8 0 14 -4 14 -10 0 -5 39 -47 86 -94 60 -60 90 -82 104 -79 22 6 34 -23 25
-60 -8 -31 11 -71 31 -63 8 3 14 1 14 -4 0 -6 11 -10 23 -10 40 0 57 -30 57
-96 0 -70 26 -120 68 -135 19 -6 32 -21 41 -44 7 -19 21 -40 32 -45 10 -6 19
-16 19 -23 0 -7 19 -32 41 -56 38 -40 41 -42 37 -18 -4 18 -1 24 9 20 7 -3 13
-14 13 -24 0 -19 23 -19 890 -19 l891 0 -2 3743 c-1 2058 -5 3850 -8 3981 l-6
239 -62 41 c-68 45 -74 61 -46 120 12 26 25 37 51 43 20 5 38 15 40 22 6 19
-73 10 -119 -13 -43 -21 -93 -7 -114 34 -20 38 -19 55 5 118 23 59 25 129 9
234 -10 62 -17 80 -62 137 -28 36 -53 68 -57 71 -20 16 -40 59 -40 87 0 26
-10 40 -56 80 -108 94 -257 119 -455 76 -36 -7 -89 -12 -117 -9 -35 3 -50 1
-46 -6 10 -16 -57 1 -81 21 -11 9 -26 24 -33 33 -7 9 -30 27 -52 39 -29 17
-47 37 -64 73 -24 49 -39 63 -98 94 -16 7 -28 20 -28 28 0 9 -10 14 -28 14
-30 0 -87 24 -97 41 -4 5 -19 9 -34 9 -31 0 -88 46 -112 90 -8 14 -45 55 -84
91 -64 60 -77 67 -151 87 -100 27 -275 31 -320 7 -16 -8 -38 -15 -48 -15 -11
0 -27 -7 -36 -15 -9 -8 -46 -17 -86 -21 -64 -5 -74 -3 -129 25 -33 17 -66 31
-74 31 -7 0 -30 13 -50 29 -20 15 -47 34 -61 41 -14 7 -29 19 -33 27 -9 15
-54 37 -157 76 -89 35 -261 44 -336 19z m1224 -318 c16 -3 44 -19 61 -34 16
-16 44 -31 61 -35 16 -4 30 -12 30 -19 0 -17 41 -52 71 -60 29 -7 96 -62 87
-71 -3 -3 -30 1 -59 9 -29 9 -66 16 -81 16 -20 0 -27 4 -22 12 4 6 3 8 -3 5
-6 -4 -24 0 -39 8 -16 8 -35 15 -43 15 -8 0 -29 11 -47 25 -18 14 -39 25 -47
25 -8 0 -17 7 -21 15 -3 8 -12 15 -19 15 -22 0 -117 42 -117 51 0 10 28 17 85
22 22 2 47 4 56 5 9 1 30 -1 47 -4z m-2088 -69 c0 -8 -7 -15 -16 -15 -14 0
-14 3 -4 15 7 8 14 15 16 15 2 0 4 -7 4 -15z m-60 -74 c0 -12 -20 -27 -47 -35
-14 -5 -23 -3 -23 3 0 6 6 11 14 11 7 0 19 7 26 15 14 17 30 20 30 6z m-350
-201 c0 -11 -51 -60 -62 -60 -5 0 -8 5 -8 10 0 6 5 10 10 10 6 0 16 11 22 25
11 24 38 35 38 15z m118 -92 c-2 -6 -15 -15 -28 -20 -23 -9 -23 -8 -5 12 20
22 39 27 33 8z m-263 -39 c-5 -24 -23 -49 -37 -49 -5 0 -6 10 -2 23 13 44 47
66 39 26z m4028 -29 c31 -5 65 -17 74 -26 9 -9 29 -21 45 -26 38 -13 37 -38
-2 -38 -16 0 -30 -4 -30 -10 0 -5 10 -10 23 -10 12 0 33 -9 46 -19 l25 -19
-50 2 c-27 1 -75 3 -106 4 -61 2 -77 17 -31 28 39 10 5 21 -47 16 -31 -3 -40
-8 -40 -22 0 -22 -44 -34 -84 -24 -35 8 -33 21 5 29 47 10 29 30 -32 33 -30 2
-58 7 -62 11 -13 12 33 37 109 59 83 24 83 24 157 12z m-4152 -97 c-15 -25
-48 -63 -55 -63 -15 0 -3 23 27 50 37 34 41 36 28 13z m3904 -21 c13 -36 -98
-71 -152 -49 -20 9 -37 43 -28 58 3 3 43 6 90 5 60 -1 86 -5 90 -14z m405
-121 c66 -25 120 -67 120 -92 0 -11 12 -31 26 -44 36 -33 43 -110 18 -207 -10
-40 -23 -76 -28 -80 -8 -5 -108 -5 -137 1 -4 0 -9 10 -12 21 -4 16 -2 18 13
10 10 -6 23 -10 29 -10 22 0 10 16 -26 35 -20 11 -49 33 -65 49 -22 21 -32 26
-41 17 -16 -16 -30 -14 -71 14 -20 13 -62 38 -94 56 -31 17 -65 40 -74 51 -23
26 -35 88 -18 98 9 5 9 9 1 14 -29 18 -8 35 67 51 42 9 93 21 112 25 62 14
128 11 180 -9z m-240 -351 c0 -5 -2 -10 -4 -10 -3 0 -8 5 -11 10 -3 6 -1 10 4
10 6 0 11 -4 11 -10z m-3325 -233 l40 -4 -42 -1 c-31 -2 -43 -6 -43 -17 0 -13
14 -15 83 -11 45 3 90 8 99 11 10 4 31 1 48 -6 29 -14 40 -29 20 -29 -5 0 -10
-7 -10 -15 0 -8 -4 -15 -8 -15 -16 0 -42 -59 -42 -94 0 -25 -4 -36 -15 -36 -8
0 -15 8 -15 17 0 16 -1 16 -17 1 -13 -14 -14 -20 -3 -32 7 -9 18 -16 25 -16 8
0 22 -11 33 -25 11 -14 26 -25 34 -25 8 0 20 11 26 25 14 31 28 32 43 4 8 -16
8 -23 0 -29 -9 -5 -8 -10 4 -20 17 -14 21 -90 5 -90 -5 0 -12 -11 -16 -25 -3
-14 -12 -25 -20 -25 -23 0 -18 -73 6 -88 11 -7 20 -19 20 -27 0 -22 -28 -66
-59 -93 -21 -18 -23 -24 -12 -31 12 -8 12 -12 2 -25 -15 -18 -47 -21 -56 -6
-14 23 -95 -6 -95 -34 0 -6 -8 -16 -18 -23 -22 -13 -75 -5 -65 10 4 6 -4 7
-23 3 -60 -14 -182 -18 -251 -7 -72 11 -105 9 -273 -19 -36 -6 -81 -13 -100
-16 -90 -12 -156 -28 -170 -40 -9 -7 -40 -18 -70 -24 -73 -15 -100 -27 -100
-44 0 -17 -22 -26 -65 -26 -18 0 -38 -7 -45 -16 -15 -17 -87 -54 -107 -54 -19
0 -16 13 12 54 14 20 25 39 25 41 0 14 123 194 135 199 8 3 15 12 15 19 0 8
11 27 25 43 14 16 29 34 33 39 78 110 256 285 290 285 4 0 12 8 18 18 7 9 47
35 90 57 44 22 81 42 84 45 21 22 82 60 94 60 9 0 16 5 16 10 0 6 6 10 13 10
6 0 48 18 91 40 44 22 86 40 93 40 7 0 13 7 13 15 0 8 12 17 28 20 15 4 35 10
44 16 10 5 31 9 48 9 17 0 30 5 30 13 0 9 2 9 8 0 4 -6 25 -13 47 -16z m3520
-98 c7 -7 -30 -7 -63 0 -2 1 0 6 3 11 7 11 43 4 60 -11z m-4960 -29 c-10 -11
-23 -20 -28 -20 -6 0 -2 9 8 20 10 11 23 20 28 20 6 0 2 -9 -8 -20z m-115
-113 c-16 -25 -30 -50 -30 -56 0 -12 -68 -104 -81 -109 -4 -2 -6 -9 -3 -16 7
-18 -37 -53 -73 -58 l-32 -4 18 25 c10 14 23 42 30 61 6 19 30 54 52 78 23 23
49 56 58 72 9 16 32 41 51 55 47 35 51 13 10 -48z m644 -787 c5 -5 23 -10 38
-10 15 0 37 -9 48 -20 22 -22 26 -40 10 -40 -5 0 -10 -5 -10 -11 0 -17 -27
-39 -49 -39 -11 0 -24 -6 -28 -13 -4 -8 -16 -16 -25 -20 -10 -3 -20 -18 -24
-34 -9 -35 -53 -71 -123 -103 -31 -13 -62 -33 -69 -42 -7 -10 -29 -25 -47 -33
-38 -15 -40 -17 -105 -75 -24 -22 -49 -40 -55 -40 -46 1 -73 34 -81 101 -5 41
31 147 71 205 15 21 46 51 71 66 24 16 44 35 44 44 0 12 3 14 13 6 19 -16 142
27 163 57 16 22 21 23 82 18 36 -4 70 -11 76 -17z m-529 -190 c3 -5 -1 -20 -9
-32 -9 -12 -16 -28 -16 -35 0 -8 -11 -30 -24 -51 -14 -20 -30 -56 -36 -79 -6
-24 -21 -53 -34 -65 -14 -13 -36 -52 -51 -88 -15 -36 -30 -67 -34 -70 -4 -3
-17 -22 -30 -43 -13 -21 -28 -43 -34 -50 -13 -14 -33 -47 -54 -88 -7 -14 -22
-34 -34 -45 -12 -10 -32 -41 -46 -69 -14 -27 -43 -67 -64 -88 -22 -21 -39 -44
-39 -52 0 -7 -11 -26 -23 -42 -13 -15 -27 -41 -31 -58 -4 -16 -20 -58 -36 -92
-16 -34 -32 -72 -35 -86 -4 -13 -27 -44 -52 -68 l-45 -44 6 65 c3 36 9 112 12
169 7 112 10 120 92 238 40 58 73 89 84 77 10 -9 27 22 40 71 14 55 84 155
155 223 25 23 39 42 32 42 -8 0 7 20 33 45 27 25 52 45 58 45 12 0 2 -29 -18
-52 -9 -11 -11 -18 -4 -18 13 0 62 62 62 77 0 6 7 16 15 23 8 7 15 23 15 35 0
32 46 132 82 177 29 38 51 47 63 28z m2265 -140 c0 -5 -4 -10 -10 -10 -5 0
-10 -4 -10 -10 0 -5 14 -10 31 -10 45 0 56 -38 53 -182 -3 -127 -50 -581 -63
-613 -11 -26 -31 -134 -31 -168 0 -15 -8 -35 -19 -46 -10 -10 -31 -51 -46 -92
-16 -41 -35 -81 -42 -90 -7 -8 -13 -23 -13 -32 0 -9 -4 -17 -8 -17 -5 0 -16
-18 -26 -41 -10 -23 -32 -54 -48 -70 -30 -28 -78 -118 -78 -145 0 -8 -7 -14
-15 -14 -8 0 -15 -9 -15 -19 0 -39 -38 -37 -59 2 -8 14 -33 29 -72 41 -33 10
-66 28 -74 39 -11 16 -28 22 -73 25 -54 4 -61 2 -79 -22 -12 -14 -30 -26 -41
-26 -13 0 -23 -9 -28 -22 -3 -13 -28 -45 -55 -71 -27 -26 -49 -49 -49 -51 0
-1 -17 -22 -39 -45 l-38 -41 -13 30 c-17 41 -7 125 30 248 17 53 30 105 30
114 0 10 -21 27 -57 45 -47 23 -59 34 -64 58 -6 27 -7 28 -8 5 l-2 -25 -20 28
c-24 32 -48 35 -72 7 -20 -23 -32 -25 -48 -7 -13 14 -88 11 -103 -4 -6 -5 -44
-9 -85 -9 -73 0 -75 1 -110 38 -36 38 -37 38 -118 40 -82 1 -83 1 -83 -23 0
-20 -5 -25 -24 -25 -14 0 -27 -4 -30 -8 -10 -17 11 -30 57 -37 l47 -7 0 42 c0
39 2 42 23 36 12 -3 37 -6 55 -6 17 0 32 -4 32 -10 0 -5 -18 -10 -40 -10 -34
0 -40 -3 -40 -20 0 -12 -5 -26 -10 -33 -6 -7 -17 -21 -24 -32 -11 -16 -17 -17
-29 -7 -8 7 -17 9 -19 4 -1 -5 -16 -15 -33 -23 -35 -17 -46 -56 -20 -75 14
-11 15 -20 8 -56 -10 -44 4 -93 36 -132 10 -12 11 -16 1 -16 -8 0 -11 -9 -7
-29 3 -15 1 -33 -5 -39 -17 -17 1 -32 32 -25 33 6 35 3 66 -102 28 -97 33
-105 70 -105 18 0 34 -5 36 -11 3 -8 21 -8 63 0 76 13 227 9 233 -7 2 -7 16
-12 31 -12 17 0 42 -12 62 -30 22 -19 45 -30 64 -30 23 0 27 3 15 10 -11 7
-11 10 -2 10 7 0 24 -7 38 -16 17 -12 38 -15 69 -12 55 7 59 -5 8 -20 -143
-41 -197 -62 -348 -137 -166 -82 -191 -92 -307 -121 -32 -7 -66 -22 -77 -33
-11 -11 -50 -34 -88 -51 -37 -18 -76 -36 -85 -41 -10 -5 -26 -9 -35 -9 -10 0
-36 -11 -58 -25 -22 -13 -48 -25 -59 -25 -10 0 -34 -10 -53 -21 -20 -12 -49
-22 -67 -23 -23 -1 -31 -5 -30 -18 1 -12 -5 -18 -18 -18 -17 0 -18 -2 -8 -15
11 -13 -2 -29 -79 -104 -50 -49 -91 -92 -91 -96 0 -17 -43 -65 -59 -65 -9 0
-36 -20 -60 -45 -24 -25 -47 -45 -52 -45 -17 0 -9 -30 11 -42 13 -9 18 -19 14
-35 -5 -19 -2 -23 15 -23 19 0 20 -3 11 -21 -9 -15 -8 -24 1 -35 10 -12 8 -16
-12 -22 -24 -6 -24 -6 5 -12 16 -3 34 -14 40 -24 6 -11 19 -29 29 -40 17 -19
20 -19 30 -5 23 31 56 33 82 5 13 -14 25 -35 27 -46 3 -18 5 -19 21 -8 9 7 19
24 22 38 13 67 18 81 35 90 24 13 30 13 30 0 0 -5 -7 -10 -15 -10 -20 0 -19
-17 1 -37 12 -12 15 -32 12 -80 -3 -60 -1 -66 25 -88 15 -13 27 -29 27 -35 0
-5 3 -10 8 -10 4 0 22 -9 40 -20 28 -17 32 -23 22 -35 -10 -13 -8 -15 13 -15
14 0 29 5 33 11 4 7 20 8 43 4 105 -19 189 -1 228 48 10 13 26 21 37 19 11 -3
16 0 12 7 -4 6 -4 17 1 24 5 8 10 0 13 -23 4 -28 10 -36 30 -38 14 -2 30 -9
35 -16 6 -7 33 -24 60 -38 30 -15 49 -31 46 -39 -2 -8 -3 -24 -2 -36 5 -92 -5
-121 -65 -179 -30 -30 -59 -54 -64 -54 -5 0 -15 -6 -22 -13 -38 -37 -155 -117
-171 -117 -10 0 -37 -9 -59 -20 -23 -11 -53 -20 -67 -20 -13 0 -32 -7 -42 -16
-9 -8 -28 -17 -41 -19 -55 -10 -84 -19 -99 -31 -13 -12 -18 -12 -31 3 -16 18
-80 140 -113 218 -38 87 -83 174 -96 185 -3 3 -15 25 -28 50 -13 25 -37 62
-53 83 -21 26 -27 42 -20 49 7 7 5 18 -4 36 -8 15 -14 32 -14 38 0 6 -7 17
-15 24 -8 7 -15 23 -15 37 0 29 -23 39 -56 25 -22 -10 -24 -9 -24 11 0 12 -9
34 -21 49 -20 25 -22 25 -66 12 -26 -8 -57 -14 -71 -14 -14 0 -59 -13 -101
-29 -42 -16 -84 -32 -94 -35 -10 -3 -24 -19 -31 -36 -7 -17 -15 -27 -19 -24
-4 4 -22 -4 -42 -17 -34 -24 -65 -72 -65 -103 0 -9 -7 -16 -15 -16 -8 0 -19
-10 -26 -21 -13 -26 -7 -128 8 -137 16 -10 27 -98 14 -106 -6 -4 -11 -20 -11
-35 0 -15 -9 -36 -19 -45 -21 -19 -41 -14 -41 10 0 8 -9 14 -20 14 -11 0 -20
6 -20 13 0 8 -11 36 -25 63 -14 27 -25 55 -25 62 0 7 -11 29 -23 50 -13 20
-27 57 -30 82 -4 25 -11 65 -16 90 -33 156 -43 720 -17 915 25 188 28 200 47
215 10 8 23 35 28 60 5 25 16 65 24 90 47 143 80 271 97 370 13 80 19 110 29
155 5 22 15 65 21 95 11 51 22 77 90 205 13 26 64 87 112 136 49 48 88 93 88
99 0 13 61 69 76 70 6 0 17 7 25 16 15 19 131 74 156 74 10 0 27 7 37 15 26
20 82 19 90 0 8 -22 49 -18 80 6 32 26 82 23 185 -10 35 -12 72 -21 82 -21 16
0 18 -5 13 -27 -4 -16 -11 -32 -15 -38 -5 -5 -9 -21 -9 -36 0 -25 3 -27 65
-34 36 -3 67 -11 70 -16 4 -5 16 -9 28 -9 12 0 31 -7 41 -15 11 -8 30 -15 42
-15 13 0 26 -5 30 -11 3 -6 17 -8 31 -4 19 4 29 1 39 -13 11 -15 27 -19 87
-20 53 -1 78 2 86 12 12 15 62 22 205 32 48 3 100 10 115 15 14 6 44 14 66 19
89 19 164 43 235 77 88 41 287 160 298 177 4 7 34 34 67 60 117 94 196 211
225 336 7 30 19 69 27 87 7 18 13 44 13 57 0 15 8 30 19 36 19 10 51 63 51 83
0 16 52 67 67 67 7 0 13 7 13 15 0 8 6 15 14 15 8 0 28 11 43 25 28 24 93 35
93 15z m-1637 -102 c12 -6 38 -14 57 -18 26 -4 35 -10 35 -25 0 -15 -11 -23
-45 -33 -25 -8 -73 -24 -106 -37 -34 -13 -93 -31 -130 -40 -38 -9 -79 -22 -91
-30 -61 -41 -38 20 33 83 106 96 192 130 247 100z m3 -162 c16 -13 17 -18 6
-33 -6 -10 -16 -28 -22 -40 -15 -35 -77 -60 -165 -68 -180 -15 -195 -14 -195
9 0 12 163 116 183 116 7 0 17 4 23 9 22 22 142 27 170 7z m-786 -125 c0 -20
-6 -30 -20 -34 -11 -3 -20 -12 -20 -21 0 -9 -7 -16 -15 -16 -17 0 -18 2 -9 24
3 9 10 13 15 11 5 -3 11 7 15 22 13 53 34 61 34 14z m-1293 -613 c-6 -46 -58
-129 -121 -191 -32 -32 -45 -54 -48 -81 -3 -26 0 -35 8 -32 7 3 14 -6 16 -19
4 -18 0 -25 -19 -30 -13 -3 -27 -13 -30 -23 -4 -9 -24 -33 -45 -53 -21 -19
-38 -40 -38 -46 0 -5 -9 -18 -21 -29 -11 -10 -27 -34 -35 -52 -9 -23 -18 -31
-26 -26 -9 6 -9 3 1 -9 7 -10 10 -24 6 -34 -4 -10 -9 -31 -12 -48 -3 -16 -13
-46 -24 -67 -10 -20 -19 -44 -19 -53 0 -9 -5 -13 -11 -9 -13 8 -3 112 13 131
5 7 8 20 6 30 -4 15 -7 13 -18 -10 -20 -41 -29 -17 -42 116 -14 138 -5 213 29
264 15 21 33 56 42 79 15 38 73 114 87 114 4 0 25 16 47 36 53 48 131 83 185
82 24 0 46 2 49 6 14 14 25 -10 20 -46z m680 10 c-3 -8 -6 -5 -6 6 -1 11 2 17
5 13 3 -3 4 -12 1 -19z m7 -173 c-9 -14 -19 -24 -21 -21 -7 7 16 46 28 46 5 0
2 -11 -7 -25z m2470 -681 c19 -19 20 -31 4 -48 -15 -14 -95 -35 -157 -41 -36
-3 -44 -1 -48 15 -8 29 -4 33 61 62 69 31 117 35 140 12z m-3637 -196 c-3 -7
-5 -2 -5 12 0 14 2 19 5 13 2 -7 2 -19 0 -25z m833 -105 c-11 -17 -11 -17 -6
0 3 10 7 31 7 45 l2 27 4 -27 c2 -15 -1 -35 -7 -45z m2127 -267 c-6 -19 -55
-32 -70 -17 -9 10 -8 15 6 25 20 15 70 9 64 -8z m-2154 -35 c8 -37 -3 -162
-13 -156 -12 8 -21 104 -14 151 7 48 18 50 27 5z m1957 -75 l35 -13 -25 -12
c-25 -12 -81 -116 -94 -173 -3 -15 -22 -43 -41 -64 -19 -20 -35 -43 -35 -51 0
-16 -27 -46 -50 -57 -8 -3 -28 -15 -45 -25 -16 -11 -42 -20 -57 -20 -15 -1
-29 -5 -32 -10 -3 -5 -26 -12 -52 -16 -25 -3 -54 -15 -65 -26 -19 -19 -19 -19
-19 16 0 19 5 35 10 35 6 0 10 5 10 11 0 6 -7 9 -15 5 -17 -6 -19 2 -6 23 6 9
20 12 47 8 22 -3 31 -3 22 -1 -22 7 -24 34 -3 34 8 0 15 4 15 9 0 5 8 8 18 7
15 -1 17 9 17 71 l0 72 65 60 c36 34 71 61 78 61 6 0 21 9 33 21 46 46 121 60
189 35z m115 -45 c10 -17 -12 -21 -25 -6 -10 12 -10 15 3 15 9 0 18 -4 22 -9z
m-3095 -347 c0 -45 -24 -42 -28 4 -2 24 1 32 12 32 12 0 16 -10 16 -36z m2525
-114 c-3 -5 -10 -10 -16 -10 -5 0 -9 5 -9 10 0 6 7 10 16 10 8 0 12 -4 9 -10z
m-2552 -967 c-3 -7 -9 -13 -14 -13 -11 0 -12 34 -2 43 9 10 22 -13 16 -30z
m1187 -147 c0 -3 -4 -8 -10 -11 -5 -3 -10 -1 -10 4 0 6 5 11 10 11 6 0 10 -2
10 -4z m-1325 -46 c3 -5 1 -10 -4 -10 -6 0 -11 5 -11 10 0 6 2 10 4 10 3 0 8
-4 11 -10z m85 -37 c0 -26 -16 -47 -29 -39 -12 8 -15 39 -4 49 13 13 33 7 33
-10z m1240 -32 c0 -39 -25 -75 -38 -54 -4 5 -12 12 -19 14 -19 7 15 79 38 79
15 0 19 -7 19 -39z m-1080 -645 c0 -25 -25 -37 -54 -26 -32 12 -33 18 -3 30
33 13 57 12 57 -4z m-8 -116 c-3 -29 -7 -34 -21 -25 -6 3 -11 17 -11 31 0 19
5 25 18 22 11 -3 16 -12 14 -28z m1248 -260 c0 -11 -4 -20 -10 -20 -5 0 -10 9
-10 20 0 11 5 20 10 20 6 0 10 -9 10 -20z m-210 -475 c0 -8 -7 -15 -15 -15 -8
0 -15 7 -15 15 0 8 7 15 15 15 8 0 15 -7 15 -15z"/>
<path d="M8081 8674 c14 -17 32 -19 27 -2 -2 6 -12 12 -22 14 -14 2 -15 0 -5
-12z"/>
<path d="M3520 5910 c0 -5 5 -10 10 -10 6 0 10 5 10 10 0 6 -4 10 -10 10 -5 0
-10 -4 -10 -10z"/>
<path d="M3146 3748 c-3 -7 -4 -20 -4 -28 0 -8 -1 -22 -3 -30 -6 -23 32 -18
41 5 9 23 -4 65 -20 65 -6 0 -12 -6 -14 -12z"/>
<path d="M3520 3600 c0 -22 5 -40 10 -40 6 0 10 18 10 40 0 22 -4 40 -10 40
-5 0 -10 -18 -10 -40z"/>
<path d="M5247 9602 c-22 -24 -21 -32 3 -32 11 0 20 4 20 9 0 5 3 16 6 25 8
22 -9 20 -29 -2z"/>
<path d="M1331 4765 c1 -40 1 -40 11 -12 7 21 7 32 -1 40 -8 8 -11 0 -10 -28z"/>
<path d="M676 4262 c-4 -7 -9 -83 -7 -108 1 -15 122 -25 139 -11 19 15 16 113
-4 121 -22 9 -122 7 -128 -2z"/>
<path d="M688 4006 c45 -8 129 -14 185 -13 l102 0 -90 7 c-49 5 -133 11 -185
14 l-95 6 83 -14z"/>
<path d="M1013 3983 c9 -2 23 -2 30 0 6 3 -1 5 -18 5 -16 0 -22 -2 -12 -5z"/>
<path d="M1102 3281 c-16 -51 -15 -82 1 -76 12 5 37 71 37 100 0 30 -27 14
-38 -24z"/>
<path d="M3491 1837 c-6 -8 -8 -17 -5 -20 9 -8 44 11 44 23 0 15 -26 12 -39
-3z"/>
<path d="M1033 1603 c-7 -2 -13 -11 -13 -19 0 -8 -9 -14 -19 -14 -34 0 -33
-28 1 -35 17 -4 53 -19 80 -34 28 -14 58 -30 69 -36 38 -20 40 -59 8 -125 -17
-33 -35 -62 -40 -65 -10 -7 -11 -128 -1 -162 15 -50 44 10 62 127 14 91 37
170 54 184 11 9 28 65 30 100 1 10 -8 12 -96 22 -34 4 -58 11 -58 18 0 10 -51
48 -62 45 -1 0 -9 -3 -15 -6z"/>
<path d="M370 235 c-6 -8 -9 -23 -6 -33 5 -13 -2 -30 -20 -51 -21 -25 -23 -31
-9 -31 14 0 14 -3 -4 -26 -12 -15 -21 -41 -21 -60 l0 -34 60 0 59 0 -6 68 c-3
37 -9 71 -14 76 -6 6 -9 3 -9 -7 0 -9 -5 -17 -11 -17 -7 0 -9 9 -5 23 23 75
15 127 -14 92z"/>
<path d="M440 80 c0 -29 4 -40 15 -40 11 0 15 11 15 40 0 29 -4 40 -15 40 -11
0 -15 -11 -15 -40z"/>
<path d="M1200 86 c0 -18 5 -26 18 -26 9 0 27 -3 40 -6 35 -10 27 19 -10 36
-18 7 -36 15 -40 18 -5 2 -8 -8 -8 -22z"/>
<path d="M1180 20 c0 -18 7 -20 60 -20 53 0 60 2 60 20 0 21 -16 28 -22 9 -3
-9 -9 -9 -25 0 -36 19 -73 14 -73 -9z"/>
</g>
</svg>
